<?xml version="1.0" standalone="no"?>
<!DOCTYPE svg PUBLIC "-//W3C//DTD SVG 20010904//EN"
 "http://www.w3.org/TR/2001/REC-SVG-20010904/DTD/svg10.dtd">
<svg version="1.0" xmlns="http://www.w3.org/2000/svg"
 width="421.000000pt" height="421.000000pt" viewBox="0 0 421.000000 421.000000"
 preserveAspectRatio="xMidYMid meet">
<metadata>
Created by potrace 1.16, written by Peter Selinger 2001-2019
</metadata>
<g transform="translate(0.000000,421.000000) scale(0.100000,-0.100000)"
fill="#014675" stroke="none">
<path d="M1406 3060 c-126 -20 -307 -84 -411 -145 l-45 -26 0 -880 0 -880 23
12 c12 7 45 27 74 45 79 50 135 65 240 65 104 0 180 -16 301 -60 l82 -30 0
494 0 495 170 0 170 0 0 -635 c0 -349 -2 -635 -5 -635 -3 0 -44 11 -92 26
-276 80 -598 93 -923 38 -78 -13 -275 -59 -307 -71 -11 -4 -13 133 -13 806 l0
812 26 24 c15 14 32 25 38 25 7 0 10 31 9 92 l-2 93 -33 -3 c-52 -6 -93 -27
-143 -73 -93 -85 -85 11 -85 -1084 0 -531 3 -965 7 -965 4 0 51 18 105 40 117
48 319 102 478 127 83 13 170 18 315 17 223 0 333 -15 491 -65 82 -26 105 -29
226 -29 110 0 146 4 194 20 359 125 898 96 1312 -69 56 -23 105 -41 107 -41 3
0 5 434 5 965 0 1097 8 997 -87 1086 -46 43 -75 58 -145 73 l-28 6 0 -92 1
-93 32 -20 32 -20 3 -819 c2 -682 0 -817 -11 -813 -33 12 -230 58 -311 72
-319 54 -644 40 -919 -39 -48 -15 -89 -26 -92 -26 -3 0 -5 286 -5 635 l0 635
170 0 170 0 0 -495 0 -495 93 34 c122 44 194 59 292 58 104 0 154 -14 240 -66
39 -24 76 -46 83 -50 9 -6 12 172 12 873 l0 881 -52 30 c-74 42 -238 105 -333
127 -123 28 -379 25 -500 -6 -86 -22 -230 -75 -249 -92 -4 -4 -45 9 -90 28
-140 60 -251 84 -416 88 -80 2 -171 0 -204 -5z m404 -205 c36 -10 94 -30 130
-46 l65 -27 3 -231 2 -231 -262 -2 -263 -3 0 -445 0 -445 -40 5 c-22 3 -100 5
-173 5 l-132 0 0 672 0 672 43 19 c60 26 133 50 208 67 87 20 329 14 419 -10z
m1070 -8 c47 -14 106 -35 133 -46 l47 -20 0 -673 0 -673 -137 0 c-76 0 -153
-3 -170 -7 l-33 -8 0 450 0 450 -262 2 -263 3 -3 223 -2 222 32 20 c39 24 169
67 242 80 28 5 114 7 191 6 115 -3 155 -8 225 -29z"/>
</g>
</svg>
